# xmcd CD database file
#
# Track frame offsets:
#	150
#	13952
#	35760
#	48277
#	61190
#	76900
#	95182
#	112145
#	125365
#	147927
#	161712
#	180672
#	195485
#	212797
#
# Disc length: 3060 seconds
#
# Revision: 4
# Processed by: cddbd v1.5.2PL0 Copyright (c) Steve Scherf et al.
# Submitted via: CDex 1.50
#
DISCID=ca0bf20e
DTITLE=Carpenters - Yesterday Once More [CD2]
DYEAR=1998
DGENRE=Country
TTITLE0=There's a Kind of Hush
TTITLE1=This Masquerade
TTITLE2=Hurting Each Other
TTITLE3=Please Mr. Postman
TTITLE4=I Need To Be In Love
TTITLE5=Make Believe It's Your First Time
TTITLE6=All You Get From Love Is A Love Song
TTITLE7=Top Of The World
TTITLE8=Because We Are In Love (The Wedding Song)
TTITLE9=We've Only Just Begun
TTITLE10=Those Good Old Dreams
TTITLE11=Sing
TTITLE12=Only Yesterday
TTITLE13=(They Long to Be) Close to You
EXTD=0\n\n\n YEAR: 1998
EXTT0=
EXTT1=
EXTT2=
EXTT3=
EXTT4=
EXTT5=
EXTT6=
EXTT7=
EXTT8=
EXTT9=
EXTT10=
EXTT11=
EXTT12=
EXTT13=
PLAYORDER=
